# Blender v2.75 (sub 0) OBJ File: ''
# www.blender.org
mtllib Body.mtl
o Cube
v 1.000000 -1.000000 -2.000000
v 1.000000 -1.000000 2.000000
v -1.000000 -1.000000 2.000000
v -1.000000 -1.000000 -2.000000
v 1.000000 1.000000 -2.000000
v 0.999999 1.000000 2.000000
v -1.000000 1.000000 2.000000
v -1.000000 1.000000 -2.000000
v 1.000000 -1.000000 0.000000
v -1.000000 -1.000000 -0.000000
v 1.000000 1.000000 0.000000
v -1.000000 1.000000 -0.000000
v 1.000000 -1.000000 1.000000
v -1.000000 -1.000000 -1.000000
v 1.000000 1.000000 1.000000
v -1.000000 1.000000 -1.000000
v 1.000000 -1.000000 -1.000000
v -1.000000 -1.000000 1.000000
v 1.000000 1.000000 -1.000000
v -1.000000 1.000000 1.000000
v 1.000000 -1.000000 -0.500000
v -1.000000 -1.000000 0.500000
v 1.000000 1.000000 -0.500000
v -1.000000 1.000000 0.500000
v 1.000000 -1.000000 0.500000
v -1.000000 -1.000000 -0.500000
v 1.000000 1.000000 0.500000
v -1.000000 1.000000 -0.500000
v 0.000000 -1.000000 0.500000
v -0.000000 1.000000 0.500000
v 0.000000 -1.000000 -0.500000
v 0.000000 1.000000 -0.500000
v 0.500000 1.000000 0.000000
v -0.500000 -1.000000 -0.000000
v -0.500000 -1.000000 0.500000
v 0.500000 1.000000 0.500000
v -0.500000 -1.000000 -0.500000
v 0.500000 1.000000 -0.500000
v -0.500000 1.000000 0.000000
v 0.500000 -1.000000 -0.000000
v 0.500000 -1.000000 0.500000
v -0.500000 1.000000 0.500000
v 0.500000 -1.000000 -0.500000
v -0.500000 1.000000 -0.500000
v 1.300000 -0.500000 -0.500000
v 1.000000 0.000000 0.500000
v -1.000000 0.000000 -0.500000
v 1.000000 0.000000 -0.500000
v -1.000000 0.000000 0.500000
v -1.000000 -0.500000 -0.000000
v 1.000000 -0.500000 0.000000
v 1.000000 -0.500000 0.500000
v -1.000000 -0.500000 -0.500000
v 1.000000 -0.500000 -0.500000
v -1.000000 -0.500000 0.500000
v -1.000000 0.500000 -0.000000
v 1.000000 0.500000 0.000000
v 1.000000 0.500000 0.500000
v -1.000000 0.500000 -0.500000
v 1.000000 0.500000 -0.500000
v -0.999999 0.500000 0.500000
v 1.300000 0.000000 -0.500000
v 1.300000 0.500000 0.000000
v 1.300000 0.500000 0.500000
v 1.300000 -0.500000 0.000000
v 1.300000 -0.500000 0.500000
v 1.300000 0.000000 0.500000
v 1.300000 0.500000 -0.500000
v 1.450000 0.000000 -0.500000
v 1.450000 0.500000 0.500000
v 1.450000 -0.500000 0.500000
v 1.450000 -0.500000 -0.500000
v 1.450000 0.500000 0.000000
v 1.450000 -0.500000 0.000000
v 1.450000 0.000000 0.500000
v 1.450000 0.500000 -0.500000
v 1.450000 0.250000 0.500000
v 1.450000 -0.500000 0.250000
v 1.450000 0.250000 -0.500000
v 1.450000 0.500000 -0.250000
v 1.450000 0.500000 0.250000
v 1.450000 -0.250000 -0.500000
v 1.450000 -0.500000 -0.250000
v 1.450000 -0.250000 0.500000
v 1.450000 -0.000000 1.700000
v 1.300000 -0.000000 1.700000
v 1.300000 0.500000 1.700000
v 1.300000 -0.500000 1.700000
v 1.450000 0.500000 1.700000
v 1.450000 -0.500000 1.700000
v 1.450000 0.250000 1.700000
v 1.450000 -0.250000 1.700000
v 1.450000 -0.500000 -1.700000
v 1.300000 -0.500000 -1.700000
v 1.450000 0.500000 -1.700000
v 1.300000 0.500000 -1.700000
v 1.300000 0.000000 -1.700000
v 1.450000 0.000000 -1.700000
v 1.450000 0.250000 -1.700000
v 1.450000 -0.250000 -1.700000
v 1.450000 -0.500000 1.100000
v 1.450000 0.500000 1.100000
v 1.300000 0.500000 1.100000
v 1.300000 -0.500000 1.100000
v 1.300000 0.500000 -1.100000
v 1.450000 -0.500000 -1.100000
v 1.300000 -0.500000 -1.100000
v 1.450000 0.500000 -1.100000
v 1.450000 0.700000 0.000000
v 1.300000 0.700000 0.000000
v 1.450000 0.700000 -0.500000
v 1.300000 0.700000 -0.500000
v 1.300000 0.700000 0.500000
v 1.450000 0.700000 0.500000
v 1.450000 0.700000 -0.250000
v 1.450000 0.700000 0.250000
v 1.300000 0.700000 1.100000
v 1.450000 0.700000 -1.100000
v 1.450000 0.700000 1.100000
v 1.300000 0.700000 -1.100000
v 1.450000 -0.700000 -0.500000
v 1.300000 -0.700000 -0.500000
v 1.450000 -0.700000 0.000000
v 1.300000 -0.700000 0.000000
v 1.300000 -0.700000 0.500000
v 1.450000 -0.700000 0.500000
v 1.450000 -0.700000 0.250000
v 1.450000 -0.700000 -0.250000
v 1.450000 -0.700000 1.100000
v 1.300000 -0.700000 -1.100000
v 1.300000 -0.700000 1.100000
v 1.450000 -0.700000 -1.100000
v -1.300000 -0.500000 -0.000000
v -1.300000 0.000000 0.500000
v -1.299999 0.500000 0.500000
v -1.300000 0.500000 0.000000
v -1.300000 -0.500000 -0.500000
v -1.300000 0.000000 -0.500000
v -1.300000 0.500000 -0.500000
v -1.300000 -0.500000 0.500000
v -1.450000 -0.500000 0.000000
v -1.450000 0.500000 0.000000
v -1.450000 0.000000 -0.500000
v -1.450000 0.000000 0.500000
v -1.449999 0.500000 0.500000
v -1.450000 -0.500000 -0.500000
v -1.450000 0.500000 -0.500000
v -1.450000 -0.500000 0.500000
v -1.449999 0.000000 1.700000
v -1.299999 -0.000000 1.700000
v -1.449999 0.500000 1.700000
v -1.299999 0.500000 1.700000
v -1.449999 -0.500000 1.700000
v -1.299999 -0.500000 1.700000
v -1.450001 -0.500000 -1.700000
v -1.300001 -0.500000 -1.700000
v -1.450001 0.500000 -1.700000
v -1.300001 0.500000 -1.700000
v -1.300001 0.000000 -1.700000
v -1.450001 0.000000 -1.700000
v -1.450000 -0.500000 1.100000
v -1.300001 0.500000 -1.100000
v -1.300000 -0.500000 1.100000
v -1.449999 0.500000 1.100000
v -1.299999 0.500000 1.100000
v -1.450001 0.500000 -1.100000
v -1.450001 -0.500000 -1.100000
v -1.300001 -0.500000 -1.100000
v -1.449999 0.700000 0.500000
v -1.299999 0.700000 0.500000
v -1.450000 0.700000 -0.500000
v -1.300000 0.700000 -0.500000
v -1.300000 0.700000 0.000000
v -1.450000 0.700000 0.000000
v -1.449999 0.700000 1.100000
v -1.299999 0.700000 1.100000
v -1.450001 0.700000 -1.100000
v -1.300001 0.700000 -1.100000
v -1.450001 -0.700000 -0.500000
v -1.300001 -0.700000 -0.500000
v -1.450000 -0.700000 0.500000
v -1.300000 -0.700000 0.500000
v -1.300000 -0.700000 -0.000000
v -1.450000 -0.700000 0.000000
v -1.300000 -0.700000 1.100000
v -1.300001 -0.700000 -1.100000
v -1.450000 -0.700000 1.100000
v -1.450001 -0.700000 -1.100000
v -0.500000 1.100000 0.000000
v -0.000000 1.100000 0.000000
v -0.500000 1.100000 0.500000
v -0.000000 1.100000 0.500000
v -0.500000 1.100000 -0.500000
v 0.000000 1.100000 -0.500000
v 0.500000 1.100000 0.000000
v 0.500000 1.100000 0.500000
v 0.500000 1.100000 -0.500000
v 0.500000 -1.100000 -0.000000
v 0.000000 -1.100000 -0.000000
v 0.500000 -1.100000 0.500000
v 0.000000 -1.100000 0.500000
v 0.500000 -1.100000 -0.500000
v 0.000000 -1.100000 -0.500000
v -0.500000 -1.100000 -0.000000
v -0.500000 -1.100000 0.500000
v -0.500000 -1.100000 -0.500000
vn 0.000000 -1.000000 0.000000
vn 0.000000 1.000000 -0.000000
vn 1.000000 0.000000 0.000000
vn -0.000000 -0.000000 1.000000
vn -1.000000 -0.000000 -0.000000
vn 0.000000 0.000000 -1.000000
usemtl Material
s off
f 13//1 2//1 3//1 18//1
f 15//2 20//2 7//2 6//2
f 13//3 15//3 6//3 2//3
f 2//4 6//4 7//4 3//4
f 14//5 16//5 8//5 4//5
f 5//6 1//6 4//6 8//6
f 61//5 24//5 12//5 56//5
f 60//3 23//3 11//3 57//3
f 44//2 28//2 12//2 39//2
f 37//1 34//1 10//1 26//1
f 1//1 17//1 14//1 4//1
f 5//2 8//2 16//2 19//2
f 1//3 5//3 19//3 17//3
f 3//5 7//5 20//5 18//5
f 26//5 53//5 47//5 59//5 28//5 16//5 14//5
f 25//3 52//3 46//3 58//3 27//3 15//3 13//3
f 27//2 36//2 30//2 42//2 24//2 20//2 15//2
f 25//1 13//1 18//1 22//1 35//1 29//1 41//1
f 34//1 35//1 22//1 10//1
f 39//2 12//2 24//2 42//2
f 57//3 11//3 27//3 58//3
f 56//5 12//5 28//5 59//5
f 17//1 21//1 43//1 31//1 37//1 26//1 14//1
f 19//2 16//2 28//2 44//2 32//2 38//2 23//2
f 17//3 19//3 23//3 60//3 48//3 54//3 21//3
f 18//5 20//5 24//5 61//5 49//5 55//5 22//5
f 38//6 32//6 194//6 197//6
f 34//5 37//5 206//5 204//5
f 29//4 35//4 205//4 201//4
f 39//5 42//5 191//5 189//5
f 23//2 38//2 33//2 11//2
f 21//1 9//1 40//1 43//1
f 9//1 25//1 41//1 40//1
f 11//2 33//2 36//2 27//2
f 42//4 30//4 192//4 191//4
f 43//3 40//3 198//3 202//3
f 37//6 31//6 203//6 206//6
f 36//3 33//3 195//3 196//3
f 22//5 55//5 50//5 10//5
f 21//3 54//3 51//3 9//3
f 9//3 51//3 52//3 25//3
f 10//5 50//5 53//5 26//5
f 148//5 144//5 145//5 142//5 147//5 143//5 146//5 141//5
f 58//4 46//4 67//4 64//4
f 52//1 51//1 65//1 66//1
f 48//6 60//6 68//6 62//6
f 60//2 57//2 63//2 68//2
f 57//2 58//2 64//2 63//2
f 54//6 48//6 62//6 45//6
f 51//1 54//1 45//1 65//1
f 46//4 52//4 66//4 67//4
f 77//3 70//3 102//3 89//3 91//3
f 101//4 104//4 131//4 129//4
f 79//3 69//3 98//3 99//3
f 81//3 73//3 109//3 116//3
f 63//5 64//5 113//5 110//5
f 69//3 82//3 100//3 98//3
f 104//5 66//5 125//5 131//5
f 71//3 84//3 92//3 90//3 101//3
f 75//3 84//3 71//3 78//3 74//3 83//3 72//3 82//3 69//3 79//3 76//3 80//3 73//3 81//3 70//3 77//3
f 87//4 86//4 85//4 91//4 89//4
f 86//4 88//4 90//4 92//4 85//4
f 64//5 67//5 86//5 87//5 103//5
f 102//2 103//2 87//2 89//2
f 84//3 75//3 85//3 92//3
f 67//5 66//5 104//5 88//5 86//5
f 104//1 101//1 90//1 88//1
f 75//3 77//3 91//3 85//3
f 97//6 96//6 95//6 99//6 98//6
f 94//6 97//6 98//6 100//6 93//6
f 62//5 68//5 105//5 96//5 97//5
f 82//3 72//3 106//3 93//3 100//3
f 45//5 62//5 97//5 94//5 107//5
f 106//1 107//1 94//1 93//1
f 76//3 79//3 99//3 95//3 108//3
f 105//2 108//2 95//2 96//2
f 80//3 76//3 111//3 115//3
f 83//3 74//3 123//3 128//3
f 107//6 106//6 132//6 130//6
f 76//3 108//3 118//3 111//3
f 112//2 110//2 109//2 115//2 111//2
f 110//2 113//2 114//2 116//2 109//2
f 112//2 111//2 118//2 120//2
f 114//2 113//2 117//2 119//2
f 73//3 80//3 115//3 109//3
f 105//5 68//5 112//5 120//5
f 103//4 102//4 119//4 117//4
f 102//3 70//3 114//3 119//3
f 108//6 105//6 120//6 118//6
f 70//3 81//3 116//3 114//3
f 64//5 103//5 117//5 113//5
f 68//5 63//5 110//5 112//5
f 125//1 124//1 123//1 127//1 126//1
f 124//1 122//1 121//1 128//1 123//1
f 121//1 122//1 130//1 132//1
f 125//1 126//1 129//1 131//1
f 66//5 65//5 124//5 125//5
f 72//3 83//3 128//3 121//3
f 78//3 71//3 126//3 127//3
f 71//3 101//3 129//3 126//3
f 45//5 107//5 130//5 122//5
f 65//5 45//5 122//5 124//5
f 106//3 72//3 121//3 132//3
f 74//3 78//3 127//3 123//3
f 50//1 55//1 140//1 133//1
f 47//6 53//6 137//6 138//6
f 55//4 49//4 134//4 140//4
f 56//2 59//2 139//2 136//2
f 61//2 56//2 136//2 135//2
f 49//4 61//4 135//4 134//4
f 53//1 50//1 133//1 137//1
f 59//6 47//6 138//6 139//6
f 168//3 137//3 180//3 186//3
f 143//5 147//5 166//5 157//5 160//5
f 140//3 134//3 150//3 154//3 163//3
f 142//5 145//5 169//5 174//5
f 135//3 136//3 173//3 170//3
f 144//5 148//5 161//5 153//5 149//5
f 133//3 140//3 182//3 183//3
f 166//2 162//2 158//2 157//2
f 154//4 150//4 149//4 153//4
f 150//4 152//4 151//4 149//4
f 145//5 144//5 149//5 151//5 164//5
f 165//2 164//2 151//2 152//2
f 134//3 135//3 165//3 152//3 150//3
f 161//1 163//1 154//1 153//1
f 159//6 156//6 155//6 160//6
f 158//6 159//6 160//6 157//6
f 168//1 167//1 155//1 156//1
f 139//3 138//3 159//3 158//3 162//3
f 146//5 143//5 160//5 155//5 167//5
f 138//3 137//3 168//3 156//3 159//3
f 167//6 168//6 186//6 188//6
f 141//5 146//5 179//5 184//5
f 166//5 147//5 171//5 177//5
f 147//5 142//5 174//5 171//5
f 173//2 172//2 171//2 174//2
f 170//2 173//2 174//2 169//2
f 170//2 169//2 175//2 176//2
f 171//2 172//2 178//2 177//2
f 145//5 164//5 175//5 169//5
f 164//4 165//4 176//4 175//4
f 165//3 135//3 170//3 176//3
f 162//6 166//6 177//6 178//6
f 136//3 139//3 172//3 173//3
f 139//3 162//3 178//3 172//3
f 183//1 182//1 181//1 184//1
f 180//1 183//1 184//1 179//1
f 180//1 179//1 188//1 186//1
f 181//1 182//1 185//1 187//1
f 140//3 163//3 185//3 182//3
f 148//5 141//5 184//5 181//5
f 163//4 161//4 187//4 185//4
f 146//5 167//5 188//5 179//5
f 161//5 148//5 181//5 187//5
f 137//3 133//3 183//3 180//3
f 195//2 190//2 192//2 196//2
f 197//2 194//2 190//2 195//2
f 190//2 189//2 191//2 192//2
f 194//2 193//2 189//2 190//2
f 30//4 36//4 196//4 192//4
f 33//3 38//3 197//3 195//3
f 44//5 39//5 189//5 193//5
f 32//6 44//6 193//6 194//6
f 198//1 200//1 201//1 199//1
f 202//1 198//1 199//1 203//1
f 199//1 201//1 205//1 204//1
f 203//1 199//1 204//1 206//1
f 31//6 43//6 202//6 203//6
f 40//3 41//3 200//3 198//3
f 41//4 29//4 201//4 200//4
f 35//5 34//5 204//5 205//5
